<?xml version="1.0" encoding="UTF-8" standalone="no"?>
<!-- Created with Inkscape (http://www.inkscape.org/) -->

<svg
   xmlns:dc="http://purl.org/dc/elements/1.1/"
   xmlns:cc="http://creativecommons.org/ns#"
   xmlns:rdf="http://www.w3.org/1999/02/22-rdf-syntax-ns#"
   xmlns:svg="http://www.w3.org/2000/svg"
   xmlns="http://www.w3.org/2000/svg"
   xmlns:sodipodi="http://sodipodi.sourceforge.net/DTD/sodipodi-0.dtd"
   xmlns:inkscape="http://www.inkscape.org/namespaces/inkscape"
   width="354.33069"
   height="354.33069"
   id="svg2"
   version="1.1"
   inkscape:version="0.48.5 r10040"
   sodipodi:docname="KNTU.svg"
   inkscape:export-filename="/home/sky/Documents/KNTU-LOGO/KNTU.png"
   inkscape:export-xdpi="500"
   inkscape:export-ydpi="500">
  <defs
     id="defs4">
    <inkscape:path-effect
       effect="knot"
       id="path-effect3790"
       is_visible="true"
       interruption_width="3"
       prop_to_stroke_width="true"
       add_stroke_width="true"
       add_other_stroke_width="true"
       switcher_size="15"
       crossing_points_vector="" />
  </defs>
  <sodipodi:namedview
     id="base"
     pagecolor="#ffffff"
     bordercolor="#666666"
     borderopacity="1.0"
     inkscape:pageopacity="0.0"
     inkscape:pageshadow="2"
     inkscape:zoom="0.5"
     inkscape:cx="-447.83163"
     inkscape:cy="165.77104"
     inkscape:document-units="cm"
     inkscape:current-layer="layer2"
     showgrid="false"
     units="cm"
     inkscape:window-width="1920"
     inkscape:window-height="1060"
     inkscape:window-x="-2"
     inkscape:window-y="-3"
     inkscape:window-maximized="1"
     showguides="true"
     inkscape:guide-bbox="true"
     inkscape:snap-global="true" />
  <metadata
     id="metadata7">
    <rdf:RDF>
      <cc:Work
         rdf:about="">
        <dc:format>image/svg+xml</dc:format>
        <dc:type
           rdf:resource="http://purl.org/dc/dcmitype/StillImage" />
        <dc:title></dc:title>
      </cc:Work>
    </rdf:RDF>
  </metadata>
  <g
     inkscape:groupmode="layer"
     id="layer2"
     inkscape:label="Line"
     style="display:inline">
    <path
       style="font-size:medium;font-style:normal;font-variant:normal;font-weight:normal;font-stretch:normal;text-indent:0;text-align:start;text-decoration:none;line-height:normal;letter-spacing:normal;word-spacing:normal;text-transform:none;direction:ltr;block-progression:tb;writing-mode:lr-tb;text-anchor:start;baseline-shift:baseline;color:#000000;fill:#00008b;fill-opacity:1;stroke:none;stroke-width:14.6692915;marker:none;visibility:visible;display:inline;overflow:visible;enable-background:accumulate;font-family:Sans;-inkscape-font-specification:Sans"
       d="m 220.28333,0.00382308 c -0.78124,0.04309745 -1.48536,0.43351381 -2.55815,1.07584622 L 180.8051,22.480737 c -2.98836,2.210224 -4.62857,1.604968 -7.20027,0.173327 L 136.74897,1.3187515 c -2.2769,-1.31394605 -3.39358,-1.22942987 -5.61837,0 L 87.761581,26.35037 c -2.666696,2.025822 -2.816446,2.888302 -2.797226,5.498828 l 0.02393,43.201662 c 0,2.778655 0.0047,2.738758 -2.271257,4.207793 L 44.488204,101.25396 c -2.816653,1.83507 -2.821137,2.32737 -2.821137,4.85331 l -0.04781,50.03933 c 0.03324,3.29865 0.635803,3.66142 2.821137,4.87723 l 37.420541,21.53445 c 3.130299,1.44154 3.122251,2.44492 3.122028,5.2541 l -0.06639,43.28563 c 5.38e-4,2.62883 0.644028,3.56521 2.821151,4.87722 l 43.368986,25.03163 c 3.08778,1.29653 3.89317,1.0111 6.14435,-0.31081 l 37.41591,-21.63669 c 2.40639,-1.38933 2.3716,-1.35569 4.78158,-0.11947 l 38.15708,22.09094 c 2.99753,1.52176 3.43083,1.28688 5.61838,0.0239 l 43.3451,-24.98382 c 2.84009,-1.6781 2.86088,-2.37675 2.82114,-4.87721 l -0.0643,-42.08865 c -0.16288,-4.61605 0.95641,-5.87598 5.1481,-7.8347 l 35.41626,-20.38991 c 2.27636,-1.31487 2.74955,-2.31187 2.79722,-4.85332 l 0.0239,-50.08714 c -0.42109,-3.32234 -1.10066,-3.8755 -3.37106,-5.16412 l -37.4398,-21.58881 c -2.4064,-1.389335 -2.35197,-1.359167 -2.48642,-4.06435 l 0.0478,-44.110171 c -0.18088,-3.356817 -0.5858,-3.614231 -2.77332,-4.87722 L 223.36747,1.0797802 C 221.9308,0.26950873 221.06457,-0.0392114 220.28334,0.003934 z M 133.88002,12.842375 c 0.45494,-0.0095 0.89263,0.27269 1.76918,0.81287 l 27.51805,15.922696 c 2.40091,1.34177 2.04685,2.037435 0.83678,2.773332 -0.17289,0.10505 -0.34707,0.202338 -0.54989,0.310795 l -27.23115,15.707523 c -0.56316,0.414976 -1.01084,0.68147 -1.41057,0.83678 -0.19986,0.07764 -0.37373,0.119786 -0.54988,0.143395 -0.88076,0.118361 -1.55615,-0.390098 -2.7016,-1.075861 L 104.52105,32.662021 c -2.94646,-1.638875 -1.98781,-1.826494 0.23909,-3.155841 l 27.25505,-15.755343 c 0.92104,-0.608361 1.40988,-0.899002 1.86483,-0.908509 z m 86.76191,0.239082 c 1.19878,0.01854 2.3738,0.604369 4.04047,1.72138 l 24.00357,13.89052 c 3.83008,2.108515 3.8661,2.237508 0.33471,4.422966 l -25.12726,14.440398 c -3.65014,2.52132 -4.25463,1.557877 -7.07675,-0.07177 l -23.7645,-13.770974 c -4.42492,-2.592384 -4.66166,-2.809568 -0.83677,-4.90113 L 216.52978,14.75497 c 1.7071,-1.152552 2.91341,-1.692083 4.11215,-1.67356 z m -40.47877,26.173411 31.8002,18.391 c 2.44201,1.591357 2.71015,1.614585 2.89286,4.685957 l 0,43.775445 c -0.0126,3.27874 0.77421,3.61187 2.82114,4.87722 l 38.27663,21.97141 c 1.71492,0.93225 2.52444,1.47256 2.24734,3.44275 l -0.021,36.18948 c -0.01,4.99319 -0.58378,5.55716 -3.68442,7.36502 l -31.2003,17.98455 c -2.59916,1.31915 -2.74759,1.5448 -5.49884,0.16734 l -37.91795,-21.89966 c -2.83316,-1.6503 -3.49907,-1.14002 -5.61838,0 l -38.18098,22.16265 c -1.66483,1.01906 -2.54449,1.44024 -4.11217,0.21518 L 99.666792,179.9125 c -3.23917,-1.72633 -3.53512,-3.40959 -3.39143,-6.31899 l 0.0214,-35.85603 c 0.0589,-1.09143 0.0775,-1.80848 0.21518,-2.36687 0.046,-0.18615 0.11345,-0.3669 0.19127,-0.52598 0.31123,-0.63632 0.91527,-1.1135 2.19952,-1.96045 L 136.82066,111.0084 c 2.84575,-1.62842 2.74879,-2.47183 2.82113,-4.87721 l -0.11947,-44.134071 c -0.05,-1.951318 0.0201,-2.936707 1.86482,-3.681824 l 33.18811,-19.122347 c 2.45975,-1.540321 3.53156,-1.199341 5.58794,0.06195 z m 77.65564,1.918426 c 0.64363,-0.04437 0.39002,0.895041 0.40644,2.605963 l -0.0478,31.008611 c 0.19304,2.935154 -0.56105,3.455545 -2.43861,4.446875 l -26.68127,15.372818 c -2.07392,1.268503 -3.1295,1.070094 -2.98849,-1.530117 l 0,-30.506537 c 0.0485,-2.757835 0.29409,-3.386049 2.96458,-4.996753 l 26.39438,-15.205465 c 1.29945,-0.788611 2.00461,-1.168776 2.39079,-1.195395 z M 96.846612,41.460196 c 0.44335,0.01109 1.14041,0.42239 2.19953,0.980223 l 26.824708,15.51626 c 2.24568,1.416621 2.34484,1.441322 2.43861,4.11217 l 0.0716,31.247677 c 0.0902,2.959588 -0.46509,3.078487 -2.58205,1.64965 L 98.328892,79.06739 c -1.95314,-1.085812 -2.12773,-1.93625 -2.1278,-3.920906 l -0.0239,-31.152055 c -0.0559,-1.899317 0.0993,-2.548557 0.66943,-2.534233 z M 264.05877,87.985051 c 0.6564,0.04595 1.29232,0.364557 2.15172,0.86069 l 26.99207,15.564079 c 2.97398,1.60207 2.2429,1.79249 -0.0716,3.25148 l -26.8486,15.46844 c -2.34969,1.2365 -2.42171,1.3259 -4.7816,0.0716 l -27.08773,-15.56405 c -2.60818,-1.40168 -2.43934,-1.94129 -0.1434,-3.06022 l 27.49413,-15.827056 c 0.95845,-0.574295 1.63876,-0.810969 2.29516,-0.765066 z m -173.236968,0.07177 c 0.7354,0.03596 1.39651,0.415039 2.29516,0.980223 l 26.657358,15.420626 c 2.13554,1.16181 2.46581,2.16914 0.1434,3.34712 l -26.394318,15.25319 c -0.30157,0.16711 -0.55845,0.32629 -0.81287,0.45424 -0.25443,0.12786 -0.49507,0.22353 -0.71723,0.31081 -1.33301,0.52366 -2.23192,0.29374 -4.279525,-0.83678 L 61.343304,107.75693 c -1.554803,-0.8529 -2.245192,-1.30959 -2.319061,-1.64966 -0.01109,-0.0486 0.01109,-0.098 0.02393,-0.14339 0.10663,-0.36385 0.948992,-0.64311 2.127799,-1.33884 l 26.87253,-15.49235 c 1.22269,-0.817386 2.0379,-1.111861 2.77331,-1.075862 z M 300.73357,116.43555 c 0.84802,-0.11519 0.71515,0.87094 0.74113,2.65378 l 0,31.48676 c 0.13262,2.20368 0.0908,2.20173 -1.72136,3.17976 l -27.54195,15.87488 c -2.69999,1.60955 -2.88092,0.54796 -2.82114,-1.29103 l 0.0239,-31.41503 c -0.3112,-2.78077 0.52424,-2.97797 2.3908,-4.01655 l 27.03988,-15.61188 c 0.90391,-0.54134 1.50326,-0.80832 1.88874,-0.86069 z m -246.992999,0.26291 c 0.54644,0.0428 1.425352,0.48223 2.797242,1.21931 l 25.055528,14.53601 c 4.008593,1.90046 3.490769,2.90945 3.490547,6.16827 l -0.04786,27.47027 c -0.03264,5.12829 -0.101407,5.42252 -3.825267,3.15584 L 56.896397,155.23811 c -3.703373,-1.80426 -4.332413,-3.09691 -4.06435,-7.10066 l 0.04785,-27.73322 c -0.05561,-2.732 -0.05007,-3.77718 0.860673,-3.70573 z m 117.053309,74.76015 c 0.71465,-0.0343 0.82906,0.7267 0.71724,2.31907 l -0.0478,31.72584 c 0.0363,2.23439 -0.60035,2.80899 -2.31908,3.80137 l -26.96815,15.58797 c -2.87444,1.77449 -2.66711,1.03655 -2.77331,-1.69747 l 0,-30.98468 c 0.10389,-2.65314 0.0768,-2.74338 2.34296,-4.15999 l 27.03989,-15.68361 c 0.94425,-0.58422 1.57949,-0.88786 2.00827,-0.9085 z m -73.756008,0.16735 c 0.43318,-0.0474 1.01377,0.26839 1.69746,0.69332 l 27.183338,15.70753 c 2.56382,1.12087 2.28119,1.95248 2.24734,4.08826 l 0.0239,31.22378 c 0.0539,3.37114 -0.60426,2.62661 -2.86895,1.36275 L 98.042022,228.99412 c -1.97476,-0.98695 -1.94782,-1.02572 -1.88872,-3.08413 l 0.0239,-31.79757 c -0.0247,-1.76795 0.30373,-2.42549 0.86068,-2.48642 z m 86.881478,0.0957 c 0.41655,0.027 0.96797,0.27278 1.64964,0.71723 l 26.39437,15.22937 c 2.36412,1.42091 2.78539,1.95041 2.84505,5.06847 l 0,30.45874 c 0.0885,4.05244 -0.24602,3.06736 -2.62988,1.72136 l -26.84862,-15.54018 c -2.63843,-1.30041 -2.71014,-2.20566 -2.62987,-4.32734 l 0.0239,-30.79344 c -0.0423,-1.67085 0.27895,-2.59342 1.19539,-2.53424 z m 73.32566,0.0239 c 0.86435,-0.007 0.94146,1.03905 0.88459,3.49056 l 0.0239,28.06793 c 0.28915,4.10935 -0.51079,5.28312 -4.11216,7.05284 l -24.02746,13.84274 c -3.74107,2.26269 -3.86566,2.23836 -3.99262,-1.91264 l 0.0478,-28.97642 c -0.35846,-4.42179 0.78777,-4.49122 3.61009,-6.12043 l 23.78841,-13.67535 c 1.95018,-1.10945 3.10518,-1.76426 3.77747,-1.76919 z"
       id="path4040-6"
       inkscape:connector-curvature="0"
       sodipodi:nodetypes="sccccccccccccccccccccccccccccccccccccssccsccssccccssccccccccsccccccccccccccccccsscccccccsccccccccssccccccccssccccccccssccccssccscccssccccccccssccccccccssccccccccssccccccccsscccccccccsccccccccscc" />
    <text
       xml:space="preserve"
       style="font-size:44.60112762px;font-style:normal;font-weight:normal;line-height:125%;letter-spacing:0px;word-spacing:0px;writing-mode:tb-rl;fill:#000000;fill-opacity:1;stroke:none;font-family:Sans"
       x="-1.3916286"
       y="335.61258"
       id="text3858"
       sodipodi:linespacing="125%"><tspan
         sodipodi:role="line"
         id="tspan3860"
         x="-1.3916286"
         y="335.61258"
         style="font-size:40.14101791px;font-style:normal;font-variant:normal;font-weight:normal;font-stretch:normal;writing-mode:lr-tb;font-family:IranNastaliq-Web;-inkscape-font-specification:IranNastaliq-Web">دانشگاه صنعتی خواجه نصیرالدین طوسی</tspan></text>
  </g>
</svg>
