<?xml version="1.0" encoding="UTF-8" standalone="no"?>
<!-- Created with Inkscape (http://www.inkscape.org/) -->

<svg
   xmlns:dc="http://purl.org/dc/elements/1.1/"
   xmlns:cc="http://creativecommons.org/ns#"
   xmlns:rdf="http://www.w3.org/1999/02/22-rdf-syntax-ns#"
   xmlns:svg="http://www.w3.org/2000/svg"
   xmlns="http://www.w3.org/2000/svg"
   xmlns:sodipodi="http://sodipodi.sourceforge.net/DTD/sodipodi-0.dtd"
   xmlns:inkscape="http://www.inkscape.org/namespaces/inkscape"
   width="354.33069"
   height="354.33069"
   id="svg2"
   version="1.1"
   inkscape:version="0.48.5 r10040"
   sodipodi:docname="KNTU.svg"
   inkscape:export-filename="/home/sky/Documents/KNTU-LOGO/KNTU.png"
   inkscape:export-xdpi="500"
   inkscape:export-ydpi="500">
  <defs
     id="defs4">
    <inkscape:path-effect
       effect="knot"
       id="path-effect3790"
       is_visible="true"
       interruption_width="3"
       prop_to_stroke_width="true"
       add_stroke_width="true"
       add_other_stroke_width="true"
       switcher_size="15"
       crossing_points_vector="" />
  </defs>
  <sodipodi:namedview
     id="base"
     pagecolor="#ffffff"
     bordercolor="#666666"
     borderopacity="1.0"
     inkscape:pageopacity="0.0"
     inkscape:pageshadow="2"
     inkscape:zoom="0.5"
     inkscape:cx="-447.83163"
     inkscape:cy="165.77104"
     inkscape:document-units="cm"
     inkscape:current-layer="layer2"
     showgrid="false"
     units="cm"
     inkscape:window-width="1920"
     inkscape:window-height="1060"
     inkscape:window-x="-2"
     inkscape:window-y="-3"
     inkscape:window-maximized="1"
     showguides="true"
     inkscape:guide-bbox="true"
     inkscape:snap-global="true" />
  <metadata
     id="metadata7">
    <rdf:RDF>
      <cc:Work
         rdf:about="">
        <dc:format>image/svg+xml</dc:format>
        <dc:type
           rdf:resource="http://purl.org/dc/dcmitype/StillImage" />
        <dc:title></dc:title>
      </cc:Work>
    </rdf:RDF>
  </metadata>
  <g
     inkscape:groupmode="layer"
     id="layer2"
     inkscape:label="Line"
     style="display:inline">
    <path
       style="font-size:medium;font-style:normal;font-variant:normal;font-weight:normal;font-stretch:normal;text-indent:0;text-align:start;text-decoration:none;line-height:normal;letter-spacing:normal;word-spacing:normal;text-transform:none;direction:ltr;block-progression:tb;writing-mode:lr-tb;text-anchor:start;baseline-shift:baseline;color:#000000;fill:#00008b;fill-opacity:1;stroke:none;stroke-width:14.6692915;marker:none;visibility:visible;display:inline;overflow:visible;enable-background:accumulate;font-family:Sans;-inkscape-font-specification:Sans"
       d="m 220.28333,0.00382308 c -0.78124,0.04309745 -1.48536,0.43351381 -2.55815,1.07584622 L 180.8051,22.480737 c -2.98836,2.210224 -4.62857,1.604968 -7.20027,0.173327 L 136.74897,1.3187515 c -2.2769,-1.31394605 -3.39358,-1.22942987 -5.61837,0 L 87.761581,26.35037 c -2.666696,2.025822 -2.816446,2.888302 -2.797226,5.498828 l 0.02393,43.201662 c 0,2.778655 0.0047,2.738758 -2.271257,4.207793 L 44.488204,101.25396 c -2.816653,1.83507 -2.821137,2.32737 -2.821137,4.85331 l -0.04781,50.03933 c 0.03324,3.29865 0.635803,3.66142 2.821137,4.87723 l 37.420541,21.53445 c 3.130299,1.44154 3.122251,2.44492 3.122028,5.2541 l -0.06639,43.28563 c 5.38e-4,2.62883 0.644028,3.56521 2.821151,4.87722 l 43.368986,25.03163 c 3.08778,1.29653 3.89317,1.0111 6.14435,-0.31081 l 37.41591,-21.63669 c 2.40639,-1.38933 2.3716,-1.35569 4.78158,-0.11947 l 38.15708,22.09094 c 2.99753,1.52176 3.43083,1.28688 5.61838,0.0239 l 43.3451,-24.98382 c 2.84009,-1.6781 2.86088,-2.37675 2.82114,-4.87721 l -0.0643,-42.08865 c -0.16288,-4.61605 0.95641,-5.87598 5.1481,-7.8347 l 35.41626,-20.38991 c 2.27636,-1.31487 2.74955,-2.31187 2.79722,-4.85332 l 0.0239,-50.08714 c -0.42109,-3.32234 -1.10066,-3.8755 -3.37106,-5.16412 l -37.4398,-21.58881 c -2.4064,-1.389335 -2.35197,-1.359167 -2.48642,-4.06435 l 0.0478,-44.110171 c -0.18088,-3.356817 -0.5858,-3.614231 -2.77332,-4.87722 L 223.36747,1.0797802 C 221.9308,0.26950873 221.06457,-0.0392114 220.28334,0.003934 z M 133.88002,12.842375 c 0.45494,-0.0095 0.89263,0.27269 1.76918,0.81287 l 27.51805,15.922696 c 2.40091,1.34177 2.04685,2.037435 0.83678,2.773332 -0.17289,0.10505 -0.34707,0.202338 -0.54989,0.310795 l -27.23115,15.707523 c -0.56316,0.414976 -1.01084,0.68147 -1.41057,0.83678 -0.19986,0.07764 -0.37373,0.119786 -0.54988,0.143395 -0.88076,0.118361 -1.55615,-0.390098 -2.7016,-1.075861 L 104.52105,32.662021 c -2.94646,-1.638875 -1.98781,-1.826494 0.23909,-3.155841 l 27.25505,-15.755343 c 0.92104,-0.608361 1.40988,-0.899002 1.86483,-0.908509 z m 86.76191,0.239082 c 1.19878,0.01854 2.3738,0.604369 4.04047,1.72138 l 24.00357,13.89052 c 3.83008,2.108515 3.8661,2.237508 0.33471,4.422966 l -25.12726,14.440398 c -3.65014,2.52132 -4.25463,1.557877 -7.07675,-0.07177 l -23.7645,-13.770974 c -4.42492,-2.592384 -4.66166,-2.809568 -0.83677,-4.90113 L 216.52978,14.75497 c 1.7071,-1.152552 2.91341,-1.692083 4.11215,-1.67356 z m -40.47877,26.173411 31.8002,18.391 c 2.44201,1.591357 2.71015,1.614585 2.89286,4.685957 l 0,43.775445 c -0.0126,3.27874 0.77421,3.61187 2.82114,4.87722 l 38.27663,21.97141 c 1.71492,0.93225 2.52444,1.47256 2.24734,3.44275 l -0.021,36.18948 c -0.01,4.99319 -0.58378,5.55716 -3.68442,7.36502 l -31.2003,17.98455 c -2.59916,1.31915 -2.74759,1.5448 -5.49884,0.16734 l -37.91795,-21.89966 c -2.83316,-1.6503 -3.49907,-1.14002 -5.61838,0 l -38.18098,22.16265 c -1.66483,1.01906 -2.54449,1.44024 -4.11217,0.21518 L 99.666792,179.9125 c -3.23917,-1.72633 -3.53512,-3.40959 -3.39143,-6.31899 l 0.0214,-35.85603 c 0.0589,-1.09143 0.0775,-1.80848 0.21518,-2.36687 0.046,-0.18615 0.11345,-0.3669 0.19127,-0.52598 0.31123,-0.63632 0.91527,-1.1135 2.19952,-1.96045 L 136.82066,111.0084 c 2.84575,-1.62842 2.74879,-2.47183 2.82113,-4.87721 l -0.11947,-44.134071 c -0.05,-1.951318 0.0201,-2.936707 1.86482,-3.681824 l 33.18811,-19.122347 c 2.45975,-1.540321 3.53156,-1.199341 5.58794,0.06195 z m 77.65564,1.918426 c 0.64363,-0.04437 0.39002,0.895041 0.40644,2.605963 l -0.0478,31.008611 c 0.19304,2.935154 -0.56105,3.455545 -2.43861,4.446875 l -26.68127,15.372818 c -2.07392,1.268503 -3.1295,1.070094 -2.98849,-1.530117 l 0,-30.506537 c 0.0485,-2.757835 0.29409,-3.386049 2.96458,-4.996753 l 26.39438,-15.205465 c 1.29945,-0.788611 2.00461,-1.168776 2.39079,-1.195395 z M 96.846612,41.460196 c 0.44335,0.01109 1.14041,0.42239 2.19953,0.980223 l 26.824708,15.51626 c 2.24568,1.416621 2.34484,1.441322 2.43861,4.11217 l 0.0716,31.247677 c 0.0902,2.959588 -0.46509,3.078487 -2.58205,1.64965 L 98.328892,79.06739 c -1.95314,-1.085812 -2.12773,-1.93625 -2.1278,-3.920906 l -0.0239,-31.152055 c -0.0559,-1.899317 0.0993,-2.548557 0.66943,-2.534233 z M 264.05877,87.985051 c 0.6564,0.04595 1.29232,0.364557 2.15172,0.86069 l 26.99207,15.564079 c 2.97398,1.60207 2.2429,1.79249 -0.0716,3.25148 l -26.8486,15.46844 c -2.34969,1.2365 -2.42171,1.3259 -4.7816,0.0716 l -27.08773,-15.56405 c -2.60818,-1.40168 -2.43934,-1.94129 -0.1434,-3.06022 l 27.49413,-15.827056 c 0.95845,-0.574295 1.63876,-0.810969 2.29516,-0.765066 z m -173.236968,0.07177 c 0.7354,0.03596 1.39651,0.415039 2.29516,0.980223 l 26.657358,15.420626 c 2.13554,1.16181 2.46581,2.16914 0.1434,3.34712 l -26.394318,15.25319 c -0.30157,0.16711 -0.55845,0.32629 -0.81287,0.45424 -0.25443,0.12786 -0.49507,0.22353 -0.71723,0.31081 -1.33301,0.52366 -2.23192,0.29374 -4.279525,-0.83678 L 61.343304,107.75693 c -1.554803,-0.8529 -2.245192,-1.30959 -2.319061,-1.64966 -0.01109,-0.0486 0.01109,-0.098 0.02393,-0.14339 0.10663,-0.36385 0.948992,-0.64311 2.127799,-1.33884 l 26.87253,-15.49235 c 1.22269,-0.817386 2.0379,-1.111861 2.77331,-1.075862 z M 300.73357,116.43555 c 0.84802,-0.11519 0.71515,0.87094 0.74113,2.65378 l 0,31.48676 c 0.13262,2.20368 0.0908,2.20173 -1.72136,3.17976 l -27.54195,15.87488 c -2.69999,1.60955 -2.88092,0.54796 -2.82114,-1.29103 l 0.0239,-31.41503 c -0.3112,-2.78077 0.52424,-2.97797 2.3908,-4.01655 l 27.03988,-15.61188 c 0.90391,-0.54134 1.50326,-0.80832 1.88874,-0.86069 z m -246.992999,0.26291 c 0.54644,0.0428 1.425352,0.48223 2.797242,1.21931 l 25.055528,14.53601 c 4.008593,1.90046 3.490769,2.90945 3.490547,6.16827 l -0.04786,27.47027 c -0.03264,5.12829 -0.101407,5.42252 -3.825267,3.15584 L 56.896397,155.23811 c -3.703373,-1.80426 -4.332413,-3.09691 -4.06435,-7.10066 l 0.04785,-27.73322 c -0.05561,-2.732 -0.05007,-3.77718 0.860673,-3.70573 z m 117.053309,74.76015 c 0.71465,-0.0343 0.82906,0.7267 0.71724,2.31907 l -0.0478,31.72584 c 0.0363,2.23439 -0.60035,2.80899 -2.31908,3.80137 l -26.96815,15.58797 c -2.87444,1.77449 -2.66711,1.03655 -2.77331,-1.69747 l 0,-30.98468 c 0.10389,-2.65314 0.0768,-2.74338 2.34296,-4.15999 l 27.03989,-15.68361 c 0.94425,-0.58422 1.57949,-0.88786 2.00827,-0.9085 z m -73.756008,0.16735 c 0.43318,-0.0474 1.01377,0.26839 1.69746,0.69332 l 27.183338,15.70753 c 2.56382,1.12087 2.28119,1.95248 2.24734,4.08826 l 0.0239,31.22378 c 0.0539,3.37114 -0.60426,2.62661 -2.86895,1.36275 L 98.042022,228.99412 c -1.97476,-0.98695 -1.94782,-1.02572 -1.88872,-3.08413 l 0.0239,-31.79757 c -0.0247,-1.76795 0.30373,-2.42549 0.86068,-2.48642 z m 86.881478,0.0957 c 0.41655,0.027 0.96797,0.27278 1.64964,0.71723 l 26.39437,15.22937 c 2.36412,1.42091 2.78539,1.95041 2.84505,5.06847 l 0,30.45874 c 0.0885,4.05244 -0.24602,3.06736 -2.62988,1.72136 l -26.84862,-15.54018 c -2.63843,-1.30041 -2.71014,-2.20566 -2.62987,-4.32734 l 0.0239,-30.79344 c -0.0423,-1.67085 0.27895,-2.59342 1.19539,-2.53424 z m 73.32566,0.0239 c 0.86435,-0.007 0.94146,1.03905 0.88459,3.49056 l 0.0239,28.06793 c 0.28915,4.10935 -0.51079,5.28312 -4.11216,7.05284 l -24.02746,13.84274 c -3.74107,2.26269 -3.86566,2.23836 -3.99262,-1.91264 l 0.0478,-28.97642 c -0.35846,-4.42179 0.78777,-4.49122 3.61009,-6.12043 l 23.78841,-13.67535 c 1.95018,-1.10945 3.10518,-1.76426 3.77747,-1.76919 z"
       id="path4040-6"
       inkscape:connector-curvature="0"
       sodipodi:nodetypes="sccccccccccccccccccccccccccccccccccccssccsccssccccssccccccccsccccccccccccccccccsscccccccsccccccccssccccccccssccccccccssccccssccscccssccccccccssccccccccssccccccccssccccccccsscccccccccsccccccccscc" />
    <g
       style="font-size:44.60112762px;font-style:normal;font-weight:normal;line-height:125%;letter-spacing:0px;word-spacing:0px;writing-mode:tb-rl;fill:#000000;fill-opacity:1;stroke:none;font-family:Sans"
       id="text3858">
      <path
         d="m 349.95989,318.67809 c 1.46346,1.21522 2.4304,2.24749 2.90081,3.09681 0.98,1.73789 0.9604,4.0507 -0.0588,6.93844 -1.00614,2.87469 -2.14948,4.66483 -3.43002,5.37043 -0.53574,0.28747 -1.37854,0.61414 -2.52841,0.98001 -1.13681,0.3528 -1.76401,0.5292 -1.88161,0.5292 -0.1176,0 -0.1764,-0.0457 -0.1764,-0.1372 0,-0.10454 0.0915,-0.2352 0.2744,-0.392 0.18293,-0.1568 0.75787,-0.59454 1.72481,-1.31321 0.96693,-0.73174 1.88814,-1.57454 2.76361,-2.52841 0.87547,-0.95387 1.3132,-1.67907 1.31321,-2.17562 -1e-5,-0.50959 -0.35934,-1.18253 -1.078,-2.01881 -0.71868,-0.83626 -1.56148,-1.6072 -2.52842,-2.31281 -0.13067,-0.0915 -0.16334,-0.20252 -0.098,-0.3332 l 2.21481,-5.01763 c 0.20907,-0.48345 0.34627,-0.72519 0.41161,-0.7252 0.0653,10e-6 0.12412,0.0131 0.1764,0.0392"
         style="font-size:40.14101791px;font-variant:normal;font-stretch:normal;writing-mode:lr-tb;font-family:IranNastaliq-Web;-inkscape-font-specification:IranNastaliq-Web"
         id="path2987" />
      <path
         d="m 340.21862,315.93407 2.03842,-4.80202 c 0.16986,-0.39198 0.30706,-0.58798 0.4116,-0.58801 0.11759,3e-5 0.17639,0.098 0.1764,0.294 -10e-6,0.18296 -0.098,0.7383 -0.294,1.66601 -0.19601,0.9147 -0.43774,3.36471 -0.72521,7.35004 -0.28747,3.98537 -0.68601,6.76205 -1.1956,8.33005 -0.50961,1.55495 -1.05188,2.89429 -1.62681,4.01802 -0.57494,1.12374 -1.04534,1.71828 -1.41121,1.78361 -0.0392,0 -0.0588,-0.0457 -0.0588,-0.1372 0,-0.0915 0.0653,-0.3136 0.196,-0.6664 0.81014,-2.31281 1.34587,-6.11523 1.60721,-11.40727 0.13066,-2.73093 0.42466,-4.67787 0.882,-5.84083"
         style="font-size:40.14101791px;font-variant:normal;font-stretch:normal;writing-mode:lr-tb;font-family:IranNastaliq-Web;-inkscape-font-specification:IranNastaliq-Web"
         id="path2989" />
      <path
         d="m 335.593,290.94394 c -1e-5,0.61416 -0.28094,1.33283 -0.84281,2.15601 -0.56187,0.81016 -1.07147,1.36549 -1.5288,1.66601 -0.44428,0.30055 -0.73174,0.45082 -0.86241,0.4508 -0.1176,2e-5 -0.2156,-0.0327 -0.294,-0.098 -0.0784,-0.0653 -0.41161,-0.35278 -0.99961,-0.86241 -0.588,-0.50958 -1.0584,-0.86891 -1.4112,-1.078 -0.35281,-0.22211 -0.53574,-0.36585 -0.54881,-0.4312 -0.0131,-0.0653 0.0196,-0.16332 0.098,-0.29401 l 3.13602,-4.78242 c 0.13067,-0.18291 0.36587,-0.18291 0.7056,0 1.38507,0.8363 2.21481,1.7771 2.48922,2.82241 0.0392,0.1307 0.0588,0.28096 0.0588,0.45081 m -6.29164,24.48053 c -0.18293,-0.5096 -0.2744,-0.96041 -0.2744,-1.35241 0,-0.40507 0.0915,-0.77747 0.2744,-1.1172 0.98001,-0.77094 1.51574,-1.45694 1.60721,-2.05802 0.0261,-0.23519 0.0327,-0.48346 0.0196,-0.7448 -0.0131,-0.2744 -0.0196,-0.46386 -0.0196,-0.5684 l 0,-0.43121 c 0,-0.18292 0.007,-0.33972 0.0196,-0.4704 0.0131,-0.14372 0.0261,-0.29399 0.0392,-0.4508 0.0131,-0.15679 0.0915,-0.36586 0.2352,-0.6272 0.14374,-0.26133 0.54881,-1.09107 1.21521,-2.48922 0.67947,-1.41119 1.05187,-2.1168 1.11721,-2.11681 0.15679,1e-5 0.23519,0.12415 0.2352,0.3724 -0.11761,0.56188 -0.18947,1.54189 -0.2156,2.94002 -0.0131,1.39815 -0.13067,2.48269 -0.3528,3.25362 -0.20908,0.75787 -0.71214,1.77708 -1.50921,3.05761 -0.78401,1.28055 -1.58108,2.21482 -2.39122,2.80282"
         style="font-size:40.14101791px;font-variant:normal;font-stretch:normal;writing-mode:lr-tb;font-family:IranNastaliq-Web;-inkscape-font-specification:IranNastaliq-Web"
         id="path2991" />
      <path
         d="m 328.14497,312.91566 0.6076,0.2548 c 0.15679,1e-5 0.32666,-0.0653 0.50961,-0.196 0.14371,0.36588 0.21558,0.74481 0.2156,1.1368 -2e-5,0.39202 -0.0719,0.83628 -0.2156,1.33281 -0.33975,0.27441 -0.91469,0.58801 -1.72481,0.9408 -1.18909,1.01922 -1.97309,1.54842 -2.35201,1.58761 -0.37895,0.0392 -0.84282,0.32668 -1.39161,0.86241 -0.54882,0.52267 -1.13029,0.78401 -1.74441,0.784 l -0.0392,0 -0.88201,-0.098 -0.0392,0 c -0.84934,10e-6 -1.57455,0.50961 -2.17561,1.52881 -0.60107,1.00614 -1.32628,1.90121 -2.17561,2.68521 -0.84934,0.78401 -1.74441,1.17601 -2.68522,1.17601 l -0.0392,0 c -1.47654,-0.0261 -2.54147,-0.6664 -3.19481,-1.92081 -0.65334,-1.26747 -0.98001,-2.75054 -0.98001,-4.44922 0.82321,-2.94001 1.66601,-4.50802 2.52842,-4.70403 l 0,0.1764 c 0,2.40429 0.77747,3.8547 2.33241,4.35123 0.5488,0.18294 0.9604,0.2744 1.23481,0.2744 l 0.4704,0 c 0.84933,0 1.49613,-0.12413 1.94041,-0.3724 0.44426,-0.26133 0.75786,-0.45733 0.9408,-0.58801 0.18293,-0.14372 0.42466,-0.34626 0.72521,-0.6076 0.30052,-0.27439 0.57493,-0.5096 0.8232,-0.70561 0.26133,-0.20905 0.57493,-0.31359 0.94081,-0.3136 l 1.372,0.3332 c 0.81013,-0.13065 1.50267,-0.67946 2.07762,-1.6464 0.0915,-0.13066 0.15678,-0.19599 0.196,-0.19601 0.0392,2e-5 0.11105,0.0523 0.2156,0.15681 0.11759,0.10454 0.21559,0.15681 0.294,0.1568 l 0.2352,0 c 0.67946,1e-5 1.28053,-0.57493 1.80321,-1.72481 0.0653,-0.13066 0.11759,-0.20253 0.1568,-0.2156 l 0.0196,0 m -2.21481,-24.40214 c -0.0261,0.94084 -0.71215,2.12338 -2.05801,3.54762 -0.37895,0.37897 -0.72522,0.57497 -1.03881,0.58801 -0.11761,3e-5 -0.50961,-0.28744 -1.176,-0.86241 -0.66642,-0.5749 -1.28055,-1.03877 -1.84241,-1.39161 -0.0653,-0.1045 -0.098,-0.17636 -0.098,-0.2156 -10e-6,-0.0392 0.0327,-0.11103 0.098,-0.2156 l 2.97921,-4.58642 c 0.0915,-0.1045 0.17639,-0.15676 0.2548,-0.1568 0.0784,4e-5 0.36586,0.15684 0.86241,0.4704 1.07146,0.66644 1.73133,1.50271 1.97961,2.50881 0.0261,0.13071 0.0392,0.23524 0.0392,0.3136 m 2.54801,7.03644 c -0.0261,0.94084 -0.71215,2.12337 -2.05801,3.54762 -0.37895,0.37896 -0.72522,0.57496 -1.0388,0.588 -0.11762,3e-5 -0.50962,-0.28744 -1.17601,-0.8624 -0.66641,-0.57491 -1.28055,-1.03878 -1.84241,-1.39161 -0.0653,-0.1045 -0.098,-0.17637 -0.098,-0.2156 -1e-5,-0.0392 0.0327,-0.11104 0.098,-0.2156 l 2.97922,-4.58643 c 0.0915,-0.1045 0.17638,-0.15676 0.2548,-0.1568 0.0784,4e-5 0.36585,0.15684 0.8624,0.47041 1.07146,0.66643 1.73133,1.5027 1.97961,2.50881 0.0261,0.1307 0.0392,0.23523 0.0392,0.3136 m -6.46803,0.196 c -0.0261,0.94084 -0.71215,2.12337 -2.05801,3.54762 -0.37895,0.37896 -0.72521,0.57496 -1.03881,0.58801 -0.11761,2e-5 -0.50961,-0.28745 -1.17601,-0.86241 -0.6664,-0.57491 -1.28054,-1.03878 -1.84241,-1.39161 -0.0653,-0.1045 -0.098,-0.17637 -0.098,-0.2156 0,-0.0392 0.0327,-0.11104 0.098,-0.2156 l 2.97922,-4.58642 c 0.0915,-0.10451 0.1764,-0.15677 0.2548,-0.15681 0.0784,4e-5 0.36586,0.15684 0.86241,0.47041 1.07146,0.66643 1.73133,1.5027 1.97961,2.50881 0.0261,0.1307 0.0392,0.23523 0.0392,0.3136"
         style="font-size:40.14101791px;font-variant:normal;font-stretch:normal;writing-mode:lr-tb;font-family:IranNastaliq-Web;-inkscape-font-specification:IranNastaliq-Web"
         id="path2993" />
      <path
         d="m 304.21324,323.30371 c -0.79707,0.36588 -1.1956,1.05842 -1.1956,2.07761 0,1.01922 0.2156,1.91429 0.6468,2.68522 0.4312,0.75788 1.2348,1.13681 2.41081,1.1368 1.18907,10e-6 2.20174,-0.44426 3.03802,-1.3328 0.83626,-0.9016 1.2544,-1.77707 1.25441,-2.62642 -1e-5,-0.86239 -0.70562,-1.46999 -2.11682,-1.82281 -0.7448,-0.19599 -1.53534,-0.29399 -2.37161,-0.294 -0.82321,10e-6 -1.37854,0.0588 -1.66601,0.1764 m 0.1176,12.30887 c -0.91467,0 -1.67254,-0.3136 -2.27361,-0.94081 -1.0584,-1.0976 -1.60067,-2.90081 -1.62681,-5.40963 0,-1.4112 0.1568,-2.9008 0.4704,-4.46882 0.31361,-1.568 0.71868,-2.69827 1.21521,-3.39082 0.14374,-0.19598 0.3136,-0.42465 0.5096,-0.686 0.196,-0.26132 0.30707,-0.41812 0.33321,-0.4704 0.4704,-0.37892 3.63908,-3.4888 9.50605,-9.32965 5.86695,-5.85387 9.60403,-9.96989 11.21126,-12.34807 0.31358,-0.50957 0.52265,-0.76437 0.6272,-0.76441 0.0392,0.0262 0.0588,0.17644 0.0588,0.45081 -2e-5,0.26137 -0.23522,0.96697 -0.7056,2.11681 -0.47043,1.14991 -1.12376,2.38471 -1.96001,3.70442 -0.82323,1.31977 -5.92578,6.72939 -15.30769,16.22889 1.20214,0.23521 2.31934,0.75135 3.35162,1.5484 1.04533,0.78402 1.81627,1.66603 2.31281,2.64602 0.0523,0.0915 0.14373,0.22868 0.27441,0.4116 -0.16988,1e-5 -0.39201,0.51615 -0.66641,1.54841 -0.27441,1.01921 -0.41161,1.53535 -0.4116,1.54841 -0.88855,2.31282 -1.60722,3.90696 -2.15601,4.78242 -1.24135,1.88162 -2.82895,2.82242 -4.76283,2.82242 m 15.01368,-34.37859 c -0.65335,0.94084 -2.90083,3.28632 -6.74243,7.03644 l -0.0196,0 c -0.0262,3e-5 -0.0392,-0.0261 -0.0392,-0.0784 -1e-5,-0.0522 0.007,-0.11104 0.0196,-0.1764 0.0131,-0.23517 0.11759,-0.49651 0.3136,-0.784 0.28746,-0.57491 2.58067,-3.00532 6.87964,-7.29124 0.0653,-0.0522 0.11105,-0.0784 0.1372,-0.0784 0.0392,3e-5 0.0588,0.0523 0.0588,0.1568 -2e-5,0.0915 -0.20255,0.49657 -0.60761,1.2152"
         style="font-size:40.14101791px;font-variant:normal;font-stretch:normal;writing-mode:lr-tb;font-family:IranNastaliq-Web;-inkscape-font-specification:IranNastaliq-Web"
         id="path2995" />
      <path
         d="m 304.68366,308.72123 c -1.13681,7.631 -1.70521,12.90342 -1.70521,15.81729 -0.14374,1.60722 -0.54227,2.89429 -1.19561,3.86122 -0.392,0.54881 -0.83627,0.82974 -1.3328,0.8428 -10e-6,-0.97999 0.30706,-3.67827 0.9212,-8.09484 0.6272,-4.4296 1.11067,-7.32388 1.45041,-8.68285 0.91467,-2.70479 1.48307,-4.05719 1.70521,-4.05722 0.0915,3e-5 0.14373,0.10456 0.1568,0.3136"
         style="font-size:40.14101791px;font-variant:normal;font-stretch:normal;writing-mode:lr-tb;font-family:IranNastaliq-Web;-inkscape-font-specification:IranNastaliq-Web"
         id="path2997" />
      <path
         d="m 291.31637,327.41973 c -0.43121,-0.11759 -0.65987,-0.17639 -0.68601,-0.1764 l 0,-0.0196 c 0,-0.23519 0.84934,-1.97306 2.54802,-5.21362 0.27439,-0.49653 0.50306,-0.74479 0.686,-0.74481 0.41813,2e-5 1.20213,0.44428 2.35201,1.33281 1.14987,0.88855 1.79667,1.95349 1.94042,3.19482 -1e-5,1.90775 -0.63375,3.92656 -1.90121,6.05643 -1.46349,2.50881 -3.10989,3.76322 -4.93923,3.76322 -1.59415,0 -2.39122,-0.882 -2.39121,-2.64602 -1e-5,-1.24133 0.4508,-2.56107 1.3524,-3.95922 0.0784,-0.11759 0.24173,-0.36586 0.49001,-0.7448 0.24826,-0.39199 0.43119,-0.67293 0.5488,-0.84281 m 1.27401,4.76283 c 0.60106,0 1.2152,-0.18946 1.84241,-0.5684 0.62719,-0.392 0.94079,-0.84934 0.9408,-1.37201 -10e-6,-0.52266 -0.17641,-0.93427 -0.5292,-1.23481 -0.87548,-0.75786 -1.62682,-1.176 -2.25401,-1.2544 -0.22214,0.0131 -0.59455,0.38547 -1.11721,1.1172 -0.52267,0.73175 -0.78401,1.35242 -0.78401,1.86201 0,0.96695 0.63374,1.45041 1.90122,1.45041"
         style="font-size:40.14101791px;font-variant:normal;font-stretch:normal;writing-mode:lr-tb;font-family:IranNastaliq-Web;-inkscape-font-specification:IranNastaliq-Web"
         id="path2999" />
      <path
         d="m 259.72098,312.22965 c 0.4312,-0.5488 0.93427,-1.06493 1.50921,-1.54841 0.56187,-0.49653 0.97347,-0.7448 1.2348,-0.7448 0.26134,0 0.49654,0.0327 0.70561,0.098 0.20906,0.0653 0.38546,0.13067 0.5292,0.196 0.14373,0.0653 0.32667,0.15681 0.5488,0.2744 0.22214,0.11761 0.35934,0.18947 0.41161,0.2156 l 0.0196,0 c 0.20906,1e-5 0.67946,-0.52919 1.4112,-1.5876 0.40507,-0.69254 0.81014,-1.24787 1.21521,-1.66601 0.5096,-0.61413 0.98653,-0.9212 1.43081,-0.92121 0.13066,1e-5 0.53573,0.10454 1.2152,0.3136 0.67947,0.20908 1.1956,0.31361 1.54841,0.31361 0.10453,0 0.60106,-0.6272 1.48961,-1.88162 0.88853,-1.26746 1.67253,-2.3324 2.35201,-3.19481 1.65946,-2.10373 3.27974,-3.1556 4.86083,-3.15562 0.87545,2e-5 1.50919,0.19602 1.90121,0.588 0.40505,0.39202 0.60758,1.00616 0.6076,1.84241 -0.0784,0.70562 -0.17642,1.33282 -0.294,1.88161 -0.48349,1.54189 -1.31976,3.18176 -2.50881,4.91963 -0.52269,0.75788 -1.26096,1.52881 -2.21481,2.31281 -1.89469,1.51575 -3.82204,2.27362 -5.78203,2.27362 -0.90162,0 -1.62029,-0.0719 -2.15602,-0.21561 -0.53574,-0.1568 -1.05841,-0.4312 -1.568,-0.8232 -0.50961,-0.40507 -0.82322,-0.7644 -0.94081,-1.07801 -0.15681,0.20907 -0.23521,0.33321 -0.2352,0.37241 -0.19601,0.22213 -0.50961,0.6076 -0.94081,1.1564 -1.08454,1.42428 -2.04494,2.13641 -2.88121,2.13641 -0.1176,0 -0.37894,-0.0915 -0.78401,-0.2744 -0.392,-0.18293 -0.7644,-0.28093 -1.1172,-0.294 -0.79707,-0.0653 -1.31974,-0.5684 -1.56801,-1.50921 m 20.87411,-8.74164 c -2e-5,-0.18293 -0.30708,-0.36586 -0.9212,-0.54881 -0.60109,-0.19599 -1.10416,-0.29399 -1.50921,-0.294 -0.39202,1e-5 -0.99309,0.27441 -1.80321,0.8232 -0.79709,0.53575 -1.50269,1.21522 -2.11681,2.03842 -0.60108,0.82321 -0.97349,1.39814 -1.11721,1.72481 0.28746,0 0.80359,-0.0653 1.54841,-0.19601 1.75093,-0.30052 3.29934,-0.96039 4.64523,-1.97961 0.84931,-0.57492 1.27398,-1.09759 1.274,-1.568"
         style="font-size:40.14101791px;font-variant:normal;font-stretch:normal;writing-mode:lr-tb;font-family:IranNastaliq-Web;-inkscape-font-specification:IranNastaliq-Web"
         id="path3001" />
      <path
         d="m 261.4262,313.77806 c -0.45734,0 -1.01268,0.28747 -1.66601,0.86241 l -2.11681,1.84241 c -0.16987,-0.47041 -0.25481,-0.92121 -0.25481,-1.35241 0,-0.41814 0.0849,-0.79054 0.25481,-1.11721 0.41813,-0.2352 1.00613,-0.73173 1.764,-1.48961 l 0.29401,-0.294 c 0.4704,0.0784 0.8036,0.18947 0.9996,0.3332 0.196,0.14374 0.37893,0.39201 0.5488,0.74481 l 0.17641,0.4704 m 1.6856,-21.18771 c 0,0.61415 -0.28094,1.33282 -0.8428,2.15601 -0.56187,0.81015 -1.07148,1.36549 -1.52881,1.66601 -0.44427,0.30055 -0.73174,0.45082 -0.8624,0.4508 -0.11761,2e-5 -0.21561,-0.0327 -0.294,-0.098 -0.0784,-0.0653 -0.41161,-0.35279 -0.99961,-0.86241 -0.588,-0.50958 -1.05841,-0.86892 -1.41121,-1.078 -0.3528,-0.22212 -0.53573,-0.36585 -0.5488,-0.4312 -0.0131,-0.0653 0.0196,-0.16332 0.098,-0.29401 l 3.13602,-4.78242 c 0.13066,-0.18291 0.36586,-0.18291 0.7056,0 1.38507,0.83629 2.21481,1.7771 2.48921,2.82241 0.0392,0.13069 0.0588,0.28096 0.0588,0.45081"
         style="font-size:40.14101791px;font-variant:normal;font-stretch:normal;writing-mode:lr-tb;font-family:IranNastaliq-Web;-inkscape-font-specification:IranNastaliq-Web"
         id="path3003" />
      <path
         d="m 250.23454,313.30766 -1.23481,0.2352 c -0.3136,0.0392 -0.4704,-0.0784 -0.4704,-0.3528 0,-0.0915 0.18293,-0.37893 0.5488,-0.86241 1.08454,-1.39813 2.43695,-2.0972 4.05723,-2.09721 l 0.0392,0 c 0.91466,1e-5 1.73133,0.17641 2.45001,0.5292 0.71866,0.33975 1.078,0.83628 1.07801,1.48961 -1e-5,0.64028 -0.45735,1.39815 -1.37201,2.27362 -1e-5,0.1568 0.16332,0.2352 0.49,0.2352 0.33973,0 0.9408,-0.24827 1.80321,-0.74481 0.23519,0.47041 0.35279,0.90161 0.3528,1.29361 -1e-5,0.37894 -0.11761,0.77094 -0.3528,1.17601 -0.84935,0.84933 -1.90775,1.274 -3.17522,1.274 -0.2744,0 -0.60107,-0.0719 -0.98,-0.2156 -0.36588,-0.13067 -0.66641,-0.196 -0.90161,-0.196 -0.22214,0 -0.4508,0.0653 -0.686,0.196 -0.22214,0.14373 -0.81014,0.588 -1.76401,1.33281 -0.94081,0.7448 -1.50921,1.1564 -1.70521,1.23481 -0.196,0.0784 -0.43774,0.11759 -0.7252,0.1176 -0.24827,-0.74481 -0.3724,-1.45041 -0.37241,-2.11682 1e-5,-0.65333 0.12414,-1.2348 0.37241,-1.7444 l 1.70521,0.294 c 0.4704,0 0.89507,-0.16987 1.274,-0.50961 0.37894,-0.33973 0.5684,-0.7448 0.56841,-1.2152 -1e-5,-1.08454 -0.33321,-1.62681 -0.99961,-1.62681"
         style="font-size:40.14101791px;font-variant:normal;font-stretch:normal;writing-mode:lr-tb;font-family:IranNastaliq-Web;-inkscape-font-specification:IranNastaliq-Web"
         id="path3005" />
      <path
         d="m 247.98052,317.14928 c 0.0915,0.2744 0.13719,0.62067 0.1372,1.0388 -1e-5,0.40508 -0.15681,1.07801 -0.4704,2.01882 -0.22214,0.0392 -0.55534,-0.0849 -0.99961,-0.37241 -0.44427,-0.28746 -0.96694,-0.4312 -1.568,-0.4312 -0.58801,0 -1.41775,0.392 -2.48922,1.17601 -1.07147,0.784 -1.72481,1.53534 -1.96001,2.25401 -0.1176,0.1568 -0.3332,0.2352 -0.6468,0.2352 -0.3136,0 -0.5488,-0.0784 -0.70561,-0.2352 0.50961,-0.98001 1.20214,-1.97308 2.07762,-2.97922 1.8816,-2.18214 3.97881,-3.34508 6.29163,-3.48882 l 0.3332,0.78401 m -2.52841,-15.69969 c -1e-5,0.67949 -0.33321,1.43083 -0.99961,2.25402 -0.65334,0.82322 -1.10414,1.33935 -1.35241,1.5484 -0.2352,0.20909 -0.48347,0.32669 -0.7448,0.35281 -0.10453,10e-6 -0.5096,-0.30052 -1.21521,-0.90161 -0.7056,-0.60105 -1.30667,-1.05839 -1.80321,-1.37201 -0.0653,-0.10451 -0.098,-0.17638 -0.098,-0.2156 1e-5,-0.0392 0.0327,-0.11105 0.098,-0.2156 l 2.97922,-4.58642 c 0.0784,-0.10451 0.16333,-0.15678 0.2548,-0.1568 0.10453,2e-5 0.36587,0.13069 0.78401,0.392 1.12373,0.67949 1.80973,1.54189 2.05801,2.58721 0.0261,0.13069 0.0392,0.23522 0.0392,0.3136 m -7.52644,-2.17561 c 0.13067,0.0784 0.392,0.35282 0.784,0.82321 0.392,0.45735 0.58801,0.75135 0.588,0.882 1e-5,0.11762 0.0327,0.35282 0.098,0.70561 l 0,0.2744 -0.0196,0.1764 -0.0588,0.2352 -0.0196,0.1176 -0.1568,0.392 c -0.1176,0.31362 -0.2156,0.50962 -0.294,0.588 -0.0784,0.0784 -0.1176,0.13722 -0.1176,0.17641 l -0.2352,0.3528 c -0.1568,0.24828 -0.28093,0.41815 -0.3724,0.5096 l -0.3136,0.392 c -0.0523,0.0523 -0.10453,0.11762 -0.1568,0.196 l -0.54881,0.52921 c -0.20906,0.18295 -0.40506,0.30055 -0.588,0.3528 l -0.1372,0 c -0.1176,1e-5 -0.47693,-0.26132 -1.07801,-0.78401 -0.60106,-0.53572 -1.01266,-0.87545 -1.2348,-1.0192 -0.2352,-0.14372 -0.392,-0.23519 -0.47041,-0.2744 -0.0784,-0.0523 -0.13066,-0.0915 -0.1568,-0.1176 -0.0392,-0.0261 -0.0849,-0.0588 -0.1372,-0.098 -0.0523,-0.0392 -0.0784,-0.0915 -0.0784,-0.1568 1e-5,-0.0653 0.0327,-0.15026 0.098,-0.25481 l 2.99882,-4.56682 c 0,-0.0261 0.0327,-0.0653 0.098,-0.1176 0.0653,-0.0653 0.1176,-0.098 0.1568,-0.098 0.0392,2e-5 0.0849,0.0261 0.1372,0.0784 l 0.1372,0.0588 c 0.0523,0.0523 0.13067,0.10455 0.2352,0.1568 0.10454,0.0523 0.16987,0.0915 0.196,0.1176 0.0261,0.0131 0.0719,0.0392 0.1372,0.0784 0.0523,0.0392 0.11761,0.0784 0.196,0.1176 0.0784,0.0392 0.18294,0.098 0.31361,0.1764"
         style="font-size:40.14101791px;font-variant:normal;font-stretch:normal;writing-mode:lr-tb;font-family:IranNastaliq-Web;-inkscape-font-specification:IranNastaliq-Web"
         id="path3007" />
      <path
         d="m 230.18362,320.4421 c -1.69868,3.63256 -2.83549,6.32431 -3.41042,8.07524 -0.57494,1.75095 -0.86241,3.44309 -0.8624,5.07643 -1e-5,1.63334 0.6076,2.92695 1.82281,3.88082 1.2152,0.96694 2.744,1.4504 4.58642,1.45041 3.20134,-1e-5 6.02375,-1.02574 8.46725,-3.07722 0.94078,-0.79707 1.65945,-1.60067 2.15601,-2.41081 0.49651,-0.8232 0.74478,-1.41774 0.7448,-1.78361 -2e-5,-0.36587 -0.0849,-0.65333 -0.2548,-0.86241 -0.15682,-0.20906 -0.44429,-0.38546 -0.8624,-0.5292 -0.40509,-0.14373 -0.88203,-0.294 -1.43081,-0.4508 -0.53576,-0.1568 -0.94736,-0.28746 -1.23481,-0.392 -1.16295,-0.41813 -1.74442,-1.40467 -1.74441,-2.95962 -1e-5,-0.98 0.35279,-2.18867 1.05841,-3.62602 0.24825,-0.32666 0.51612,-0.48999 0.8036,-0.49 0.28745,1e-5 0.47039,0.16334 0.54881,0.49 -0.0392,0.19601 0.0392,0.36588 0.2352,0.5096 0.20905,0.13068 0.77745,0.38548 1.70521,0.76441 0.94078,0.37894 1.46998,0.61414 1.58761,0.7056 0.64024,0.43121 0.96038,1.22828 0.9604,2.39121 -2e-5,2.02535 -0.38549,4.16176 -1.15641,6.40924 -0.77095,2.24748 -1.67909,4.08989 -2.72441,5.52723 -1.20216,1.82934 -2.6395,3.22748 -4.31202,4.19442 -1.65949,1.14987 -3.6391,1.7248 -5.93884,1.72481 l -0.098,0 c -2.33895,-0.0131 -4.16176,-0.82321 -5.46843,-2.43041 -1.0192,-1.38508 -1.52881,-2.94002 -1.5288,-4.66483 0.0131,-0.0131 0.0196,-0.0457 0.0196,-0.098 0.0653,-5.31816 2.14294,-11.37458 6.23283,-18.1693 0.0523,-0.0915 0.10453,-0.13718 0.1568,-0.1372 0.0653,2e-5 0.11106,0.007 0.1372,0.0196 l 0.0196,0 c 0.0523,0.0523 -0.0196,0.33975 -0.2156,0.86241"
         style="font-size:40.14101791px;font-variant:normal;font-stretch:normal;writing-mode:lr-tb;font-family:IranNastaliq-Web;-inkscape-font-specification:IranNastaliq-Web"
         id="path3009" />
      <path
         d="m 205.78149,317.60008 c -0.88853,1.05841 -1.3328,1.30015 -1.3328,0.72521 0,-0.28746 0.28747,-0.89507 0.8624,-1.82281 0.57494,-0.92773 0.90161,-1.44387 0.98001,-1.54841 0.7056,-0.81013 1.39814,-1.2152 2.07761,-1.21521 0.67947,1e-5 1.5876,0.24175 2.72441,0.7252 1.1368,0.48349 2.16254,0.72522 3.07722,0.72521 0.92773,10e-6 1.77053,-0.32666 2.52841,-0.98001 0.16986,-0.10452 0.3332,-0.13065 0.49001,-0.0784 0.15679,0.0392 0.23519,0.16335 0.2352,0.3724 -1e-5,0.19602 -0.20908,0.82975 -0.62721,1.90121 -0.40507,1.07149 -0.73174,1.74442 -0.98,2.01882 -0.36588,0.0784 -0.75135,0.32014 -1.15641,0.7252 l -6.13483,6.68364 -0.82321,0.9604 c -0.0523,0.0392 -0.28093,0.0588 -0.686,0.0588 -0.0784,-0.2744 -0.1176,-0.686 -0.1176,-1.23481 0,-1.0976 0.3136,-1.9012 0.94081,-2.41081 0.64026,-0.52266 1.49614,-1.3328 2.56761,-2.43041 1.08453,-1.11067 1.71827,-1.89467 1.90121,-2.35201 -0.24827,-0.1176 -0.63374,-0.30706 -1.15641,-0.56841 -0.52267,-0.27439 -1.06494,-0.54879 -1.62681,-0.8232 -0.56187,-0.28746 -1.18254,-0.43119 -1.86201,-0.4312 -0.67947,10e-6 -1.30667,0.33321 -1.88161,0.9996 m 9.07485,-16.38569 c 0,0.61416 -0.28094,1.33283 -0.8428,2.15601 -0.56188,0.81016 -1.07148,1.3655 -1.52881,1.66601 -0.44427,0.30056 -0.73174,0.45083 -0.8624,0.45081 -0.11761,2e-5 -0.21561,-0.0326 -0.29401,-0.098 -0.0784,-0.0784 -0.44427,-0.38544 -1.0976,-0.9212 -0.64027,-0.54878 -1.11721,-0.91465 -1.43081,-1.09761 -0.30054,-0.19597 -0.4508,-0.31357 -0.4508,-0.3528 0,-0.0392 0.0392,-0.13717 0.1176,-0.294 l 3.13602,-4.78243 c 0.0653,-0.1045 0.15026,-0.15677 0.2548,-0.1568 0.11759,3e-5 0.26786,0.0523 0.4508,0.1568 1.38507,0.8363 2.2148,1.77711 2.48921,2.82242 0.0392,0.13069 0.0588,0.28096 0.0588,0.4508"
         style="font-size:40.14101791px;font-variant:normal;font-stretch:normal;writing-mode:lr-tb;font-family:IranNastaliq-Web;-inkscape-font-specification:IranNastaliq-Web"
         id="path3011" />
      <path
         d="m 205.33069,319.30529 c 0.82319,2e-5 1.47,0.30055 1.94041,0.90161 0.47039,0.60108 0.76439,1.16295 0.882,1.6856 0.13066,0.50962 0.19599,1.20869 0.196,2.09722 -0.20907,1.48961 -0.43121,2.52189 -0.6664,3.09681 -0.22214,0.57495 -0.50308,1.28055 -0.8428,2.11681 -0.94082,2.32589 -1.89469,3.87429 -2.86162,4.64523 -0.35281,0.2744 -1.14334,0.64027 -2.37161,1.09761 -1.22828,0.44427 -2.29975,0.6664 -3.21442,0.6664 -0.16987,0 -0.2548,-0.0196 -0.2548,-0.0588 0,-0.16987 0.5488,-0.59454 1.64641,-1.27401 3.51494,-2.18214 5.61215,-4.29895 6.29163,-6.35043 -0.61414,0.27441 -1.11721,0.41161 -1.50921,0.4116 -1.20214,1e-5 -2.07761,-0.23519 -2.62641,-0.7056 -0.53574,-0.48346 -0.80361,-0.9408 -0.80361,-1.37201 0,-0.83626 0.49,-2.20174 1.47001,-4.09642 0.99307,-1.90773 1.90121,-2.8616 2.72442,-2.86162"
         style="font-size:40.14101791px;font-variant:normal;font-stretch:normal;writing-mode:lr-tb;font-family:IranNastaliq-Web;-inkscape-font-specification:IranNastaliq-Web"
         id="path3013" />
      <path
         d="m 193.53143,315.93407 2.03841,-4.80202 c 0.16986,-0.39198 0.30706,-0.58798 0.4116,-0.58801 0.1176,3e-5 0.1764,0.098 0.1764,0.294 0,0.18296 -0.098,0.7383 -0.294,1.66601 -0.19601,0.9147 -0.43774,3.36471 -0.7252,7.35004 -0.28748,3.98537 -0.68601,6.76205 -1.19561,8.33005 -0.50961,1.55495 -1.05187,2.89429 -1.62681,4.01802 -0.57494,1.12374 -1.04534,1.71828 -1.4112,1.78361 -0.0392,0 -0.0588,-0.0457 -0.0588,-0.1372 -10e-6,-0.0915 0.0653,-0.3136 0.196,-0.6664 0.81013,-2.31281 1.34587,-6.11523 1.60721,-11.40727 0.13066,-2.73093 0.42466,-4.67787 0.882,-5.84083"
         style="font-size:40.14101791px;font-variant:normal;font-stretch:normal;writing-mode:lr-tb;font-family:IranNastaliq-Web;-inkscape-font-specification:IranNastaliq-Web"
         id="path3015" />
      <path
         d="m 181.55577,349.90106 c -2e-5,0.75785 -0.28748,1.52879 -0.86241,2.31281 -0.56188,0.78399 -1.07148,1.33279 -1.5288,1.64641 -0.45735,0.31358 -0.74482,0.47038 -0.86241,0.4704 -0.10454,-2e-5 -0.49001,-0.28749 -1.15641,-0.8624 -0.65334,-0.57496 -1.10414,-0.94083 -1.3524,-1.09761 -0.23521,-0.15682 -0.38548,-0.25482 -0.45081,-0.294 -0.0523,-0.0261 -0.0915,-0.0523 -0.1176,-0.0784 -0.0261,-0.0131 -0.0588,-0.0327 -0.098,-0.0588 -0.0261,-0.0131 -0.0457,-0.0327 -0.0588,-0.0588 -1e-5,-0.0131 -1e-5,-0.0327 0,-0.0588 -1e-5,-0.0261 0.0327,-0.11762 0.098,-0.2744 l 3.13602,-4.78243 c 0.0653,-0.10455 0.15026,-0.15681 0.2548,-0.1568 0.11759,-1e-5 0.22866,0.0326 0.3332,0.098 1.77707,1.03226 2.6656,2.0972 2.66562,3.19482 m -6.23284,-20.95252 2.52842,0.52921 c 1.33279,0 2.56107,-0.48347 3.68482,-1.45041 1.13679,-0.98 1.70519,-1.666 1.70521,-2.05801 -0.71869,-0.35279 -1.33936,-0.6468 -1.86201,-0.88201 -0.52269,-0.24826 -0.98655,-0.37239 -1.39161,-0.3724 -0.40508,10e-6 -0.76442,0.10454 -1.07801,0.3136 -0.30054,0.20908 -0.64681,0.54228 -1.0388,0.99961 -0.37895,0.45734 -0.67295,0.68601 -0.88201,0.686 -0.13067,10e-6 -0.19601,-0.0915 -0.196,-0.2744 -10e-6,-0.19599 0.21559,-0.66639 0.64681,-1.41121 1.07146,-1.8424 2.22133,-2.7636 3.44962,-2.76361 0.43118,1e-5 1.20865,0.23521 2.33241,0.7056 1.12372,0.45735 1.82932,0.68602 2.11681,0.686 0.30052,2e-5 0.50958,-0.007 0.6272,-0.0196 0.11758,-0.0131 0.23518,-0.0261 0.3528,-0.0392 0.13065,-0.0131 0.37892,-0.15025 0.74481,-0.4116 0.36585,-0.26132 0.65331,-0.39199 0.8624,-0.392 0.22212,1e-5 0.33318,0.16335 0.33321,0.49 -3e-5,0.32668 -0.13723,0.74482 -0.41161,1.25441 -0.16989,0.41815 -0.33975,0.72521 -0.5096,0.9212 -0.15682,0.19602 -0.40509,0.38548 -0.7448,0.56841 -0.60109,0.45734 -1.10416,0.86241 -1.50921,1.2152 -1.00616,1.08455 -1.99923,2.28016 -2.97922,3.58682 -0.96695,1.29361 -1.99922,2.41082 -3.09682,3.35162 -1.09761,0.94081 -2.40428,1.41774 -3.92002,1.43081 -0.19601,0 -0.72521,-0.13067 -1.58761,-0.392 -0.84934,-0.26134 -1.32627,-0.39854 -1.4308,-0.41161 l -0.41161,-0.0392 c -0.77094,1e-5 -1.90121,0.56841 -3.39081,1.70521 -0.78401,0.58801 -1.26094,0.88201 -1.43081,0.88201 -0.1568,0 -0.2352,-0.1372 -0.2352,-0.4116 0,-0.26134 0.43773,-0.99961 1.3132,-2.21482 0.87547,-1.22827 1.67254,-2.2148 2.39122,-2.95961 0.71866,-0.75787 1.55493,-1.41774 2.50881,-1.97961 0.96693,-0.56187 1.8032,-0.8428 2.50881,-0.84281"
         style="font-size:40.14101791px;font-variant:normal;font-stretch:normal;writing-mode:lr-tb;font-family:IranNastaliq-Web;-inkscape-font-specification:IranNastaliq-Web"
         id="path3017" />
      <path
         d="m 164.62126,288.23912 c -2e-5,0.61417 -0.28095,1.33284 -0.8428,2.15601 -0.56189,0.81017 -1.07149,1.36551 -1.52881,1.66601 -0.45735,0.30056 -0.74482,0.45083 -0.86241,0.45081 -0.11761,2e-5 -0.20908,-0.0261 -0.2744,-0.0784 -0.0653,-0.0653 -0.41815,-0.3593 -1.0584,-0.882 -0.62722,-0.53571 -1.03882,-0.86238 -1.23481,-0.98001 -0.19601,-0.13063 -0.32668,-0.21557 -0.392,-0.2548 -0.0523,-0.0392 -0.0915,-0.0653 -0.1176,-0.0784 -0.0262,-0.0261 -0.0654,-0.0588 -0.1176,-0.098 -0.0653,-0.0392 -0.0523,-0.16984 0.0392,-0.392 l 3.13601,-4.78243 c 0.13066,-0.1829 0.36586,-0.1829 0.70561,0 1.38506,0.83631 2.21479,1.77711 2.48921,2.82242 0.0392,0.1307 0.0588,0.28097 0.0588,0.4508 m -7.23244,22.22652 c 0.15679,-1.22826 0.25479,-2.08413 0.294,-2.56761 0.0392,-0.49653 0.13719,-0.94733 0.294,-1.35241 0.15679,-0.41812 0.47693,-1.13679 0.96041,-2.15601 0.48346,-1.01919 0.79053,-1.67906 0.9212,-1.97961 0.13066,-0.30052 0.24173,-0.45079 0.33321,-0.4508 0.0914,10e-6 0.13718,0.11761 0.1372,0.3528 -2e-5,0.23522 -0.0327,0.60762 -0.098,1.1172 -0.0653,0.49656 -0.10455,0.88202 -0.1176,1.15641 -0.24828,3.82857 -1.31976,7.07565 -3.21442,9.74125 -1.42428,2.01228 -3.46269,3.41042 -6.11523,4.19443 -0.78401,0.2352 -1.62681,0.49 -2.52842,0.7644 -0.196,-0.0523 -0.294,-0.12413 -0.294,-0.2156 0,-0.10453 0.0653,-0.26133 0.196,-0.4704 0.28747,-0.49654 0.79707,-0.93427 1.52881,-1.31321 3.01841,-1.22827 5.26589,-2.82241 6.74244,-4.78243 0.50959,-0.69253 0.82972,-1.372 0.9604,-2.03841"
         style="font-size:40.14101791px;font-variant:normal;font-stretch:normal;writing-mode:lr-tb;font-family:IranNastaliq-Web;-inkscape-font-specification:IranNastaliq-Web"
         id="path3019" />
      <path
         d="m 142.66915,314.24846 c 0,10e-6 0.6272,0.19601 1.88161,0.58801 l 0.33321,0 c 2.57413,-4.07682 4.61908,-6.52029 6.13483,-7.33044 0.60106,-0.31359 1.18253,-0.47039 1.74441,-0.47041 0.56185,2e-5 1.03226,0.26135 1.41121,0.78401 0.39198,0.52268 0.58798,1.07148 0.588,1.64641 -2e-5,0.57494 -0.21562,1.41121 -0.6468,2.50881 -0.41815,1.09761 -1.14989,2.33895 -2.19522,3.72402 -1.80322,2.40428 -3.93309,3.61949 -6.38963,3.64562 -0.10454,0 -0.18947,0.007 -0.2548,0.0196 -1.86855,0 -3.14909,-0.4116 -3.84162,-1.23481 -0.0131,-0.0131 -0.0327,-0.0196 -0.0588,-0.0196 -0.18294,10e-6 -0.61414,0.41161 -1.29361,1.23481 -0.6664,0.8232 -1.07147,1.28707 -1.21521,1.39161 -0.2352,-0.43121 -0.3528,-0.87547 -0.3528,-1.33281 0,-0.44427 0.1176,-0.9016 0.3528,-1.37201 0.70561,-0.392 1.48308,-1.30667 2.33242,-2.74401 0.392,-0.69253 0.882,-1.0388 1.47,-1.03881 m 3.66522,0.45081 c 0.3136,-0.0653 0.5684,-0.1176 0.76441,-0.15681 2.92694,-0.57493 4.93268,-1.77707 6.01723,-3.60641 -0.71868,-0.4312 -1.34589,-0.6468 -1.88161,-0.64681 -0.52268,10e-6 -0.98655,0.13068 -1.39161,0.392 -0.87548,0.56188 -2.04495,1.90122 -3.50842,4.01803"
         style="font-size:40.14101791px;font-variant:normal;font-stretch:normal;writing-mode:lr-tb;font-family:IranNastaliq-Web;-inkscape-font-specification:IranNastaliq-Web"
         id="path3021" />
      <path
         d="m 130.02708,339.6698 0.098,0.588 0,0.27441 -0.0196,0.1764 -0.0588,0.2352 -0.0196,0.1176 -0.1372,0.392 c -0.14373,0.28745 -0.24826,0.48345 -0.3136,0.588 -0.0784,0.10452 -0.1176,0.16332 -0.1176,0.1764 l -0.2352,0.35281 c -0.1568,0.24824 -0.28093,0.41811 -0.3724,0.5096 l -0.3136,0.392 c -0.0131,0.0131 -0.0784,0.0915 -0.196,0.2352 -0.1176,0.14371 -0.22213,0.24171 -0.31361,0.294 -0.30053,0.30052 -0.56186,0.48345 -0.784,0.54881 l -0.1372,0 c -0.1568,-3e-5 -0.51613,-0.26136 -1.07801,-0.78401 -0.57493,-0.50962 -0.97999,-0.84282 -1.2152,-0.9996 -0.2352,-0.14376 -0.392,-0.24176 -0.47041,-0.294 -0.0784,-0.0392 -0.16332,-0.0915 -0.2548,-0.1568 -0.0915,-0.0654 -0.13719,-0.13723 -0.1372,-0.21561 1e-5,-0.0654 0.0327,-0.15028 0.098,-0.2548 l 2.99882,-4.56682 c 0,-0.13069 0.0784,-0.19602 0.2352,-0.196 0.0653,-2e-5 0.11761,0.0196 0.1568,0.0588 l 0.1372,0.0588 0.2548,0.1568 c 0.67948,0.32665 1.21521,0.75132 1.60721,1.27401 0.39201,0.53571 0.58801,0.88198 0.588,1.0388 m 3.23402,4.50803 -0.1764,0 c -0.0915,-3e-5 -0.47693,-0.29403 -1.1564,-0.88201 -0.67947,-0.57496 -1.30014,-1.03883 -1.86201,-1.39161 -0.0653,-0.10455 -0.098,-0.17642 -0.098,-0.2156 1e-5,-0.0392 0.0327,-0.11109 0.098,-0.2156 l 2.97921,-4.58642 c 0.0784,-0.0915 0.18947,-0.13722 0.3332,-0.1372 0.1568,-2e-5 0.59454,0.26785 1.31321,0.8036 0.73173,0.54879 1.2152,1.26746 1.45041,2.15601 0.0261,0.13065 0.0392,0.23518 0.0392,0.3136 -0.0131,0.67945 -0.41161,1.51572 -1.19561,2.50882 -0.784,0.99305 -1.35894,1.54185 -1.72481,1.64641 m 2.17561,-25.93095 2.01882,0.0784 c 0.75786,0 1.22826,-0.098 1.4112,-0.29401 0.33973,0.30054 0.5096,0.71214 0.50961,1.23481 -1e-5,0.5096 -0.32668,1.20214 -0.98001,2.07761 -0.65334,0.87547 -1.22828,1.52881 -1.72481,1.96001 -0.92774,0.81014 -1.89468,1.21521 -2.90081,1.21521 -0.45734,0 -0.82321,-0.0261 -1.09761,-0.0784 -0.49654,-0.0392 -0.79707,-0.86241 -0.90161,-2.46962 l 0,-0.5096 c 1e-5,-1.34587 0.30054,-2.31934 0.90161,-2.92041 0.87547,-0.196 1.79667,-0.294 2.76361,-0.29401"
         style="font-size:40.14101791px;font-variant:normal;font-stretch:normal;writing-mode:lr-tb;font-family:IranNastaliq-Web;-inkscape-font-specification:IranNastaliq-Web"
         id="path3023" />
      <path
         d="m 109.78017,341.68861 c -0.28746,0.1176 -0.49653,0.1764 -0.6272,0.1764 -0.13066,0 -0.196,-0.0392 -0.196,-0.1176 0,-0.0784 0.10454,-0.18294 0.3136,-0.3136 0.19601,-0.11761 1.17601,-0.74481 2.94001,-1.88161 1.75095,-1.12374 3.32549,-2.43695 4.72363,-3.93962 1.41121,-1.51574 3.07721,-3.64562 4.99803,-6.38964 1.59413,-2.40427 2.69827,-3.97881 3.31242,-4.72362 1.28052,-1.55493 2.26706,-2.646 2.95961,-3.27322 1.33279,-1.21519 2.81587,-2.11026 4.44923,-2.68521 0.58798,0.79708 0.88198,1.68562 0.882,2.66561 -2e-5,0.98002 -0.29402,2.05802 -0.882,3.23402 -2.2083,0.33974 -4.07684,1.17602 -5.60563,2.50881 -1.51576,1.31975 -2.95963,2.90082 -4.33163,4.74323 -1.37201,1.84241 -2.58722,3.27322 -3.64562,4.29242 -1.05841,1.01921 -2.52841,2.10374 -4.41002,3.25362 -1.88161,1.16293 -3.50842,1.9796 -4.88043,2.45001"
         style="font-size:40.14101791px;font-variant:normal;font-stretch:normal;writing-mode:lr-tb;font-family:IranNastaliq-Web;-inkscape-font-specification:IranNastaliq-Web"
         id="path3025" />
      <path
         d="m 112.23018,315.93407 2.03841,-4.80202 c 0.16987,-0.39198 0.30707,-0.58798 0.41161,-0.58801 0.11759,3e-5 0.17639,0.098 0.1764,0.294 -1e-5,0.18296 -0.098,0.7383 -0.294,1.66601 -0.19601,0.9147 -0.43775,3.36471 -0.72521,7.35004 -0.28747,3.98537 -0.68601,6.76205 -1.1956,8.33005 -0.50961,1.55495 -1.05188,2.89429 -1.62681,4.01802 -0.57494,1.12374 -1.04534,1.71828 -1.41121,1.78361 -0.0392,0 -0.0588,-0.0457 -0.0588,-0.1372 0,-0.0915 0.0653,-0.3136 0.196,-0.6664 0.81013,-2.31281 1.34587,-6.11523 1.60721,-11.40727 0.13066,-2.73093 0.42466,-4.67787 0.882,-5.84083"
         style="font-size:40.14101791px;font-variant:normal;font-stretch:normal;writing-mode:lr-tb;font-family:IranNastaliq-Web;-inkscape-font-specification:IranNastaliq-Web"
         id="path3027" />
      <path
         d="m 98.666908,335.63218 -0.1176,0 c -0.797072,0 -1.600675,-0.26787 -2.410814,-0.8036 -1.097603,-0.73174 -1.646406,-1.71175 -1.646408,-2.94002 2e-6,-0.13066 0.0065,-0.22866 0.0196,-0.294 0.222137,-2.96614 1.208675,-4.82162 2.959616,-5.56643 l 0,0.5684 c 0,0.33974 0.1568,0.91468 0.470402,1.72481 0.313601,0.81014 1.117205,1.21521 2.410816,1.21521 1.81627,0 3.03801,-0.9996 3.66522,-2.99882 0.27439,-1.372 0.41159,-2.7244 0.4116,-4.05722 l -0.0196,-3.64562 c -1e-5,-1.09759 0.0849,-2.60026 0.2548,-4.50803 0.11759,-0.73171 0.43773,-1.81625 0.96041,-3.25361 0.53572,-1.43732 0.97999,-2.48266 1.3328,-3.13602 0.11759,-0.14371 0.24173,-0.21557 0.37241,-0.2156 l 0.0196,0.0196 c 0.10452,3e-5 0.15679,0.0719 0.1568,0.2156 -10e-6,0.14376 -0.007,0.24829 -0.0196,0.3136 -0.39202,1.9339 -0.58802,4.41658 -0.58801,7.44804 l 0,2.45001 c -1e-5,2.1691 -0.0392,3.54764 -0.1176,4.13563 -0.0784,0.58801 -0.37241,1.90122 -0.882,3.93962 -0.50961,2.03842 -1.53535,4.26629 -3.07722,6.68363 -1.21521,1.80322 -2.60028,2.70482 -4.155222,2.70482"
         style="font-size:40.14101791px;font-variant:normal;font-stretch:normal;writing-mode:lr-tb;font-family:IranNastaliq-Web;-inkscape-font-specification:IranNastaliq-Web"
         id="path3029" />
      <path
         d="m 90.180069,335.80858 c -2.012279,0.5488 -3.253617,0.8232 -3.72402,0.8232 -0.470402,0 -0.705603,-0.0327 -0.705604,-0.098 10e-7,-0.13066 0.143735,-0.294 0.431202,-0.49 1.790143,-1.0584 3.273216,-2.01227 4.449224,-2.86161 1.189069,-0.84934 2.110273,-1.69868 2.763615,-2.54802 1.2152,-1.54187 2.69174,-4.19441 4.429624,-7.95764 0.11759,-0.20906 0.254791,-0.31359 0.411603,-0.3136 0.156789,10e-6 0.23519,0.0784 0.235201,0.2352 -1.1e-5,0.14375 -0.150279,0.57495 -0.450803,1.29361 -0.287478,0.70561 -0.463879,1.45041 -0.529203,2.23441 l 0,0.0588 c -0.287478,0.88854 -0.85588,2.11028 -1.705209,3.66522 -1.084546,1.81628 -1.901217,3.05108 -2.450013,3.70442 -0.966944,1.21521 -2.018815,1.96654 -3.155617,2.25401"
         style="font-size:40.14101791px;font-variant:normal;font-stretch:normal;writing-mode:lr-tb;font-family:IranNastaliq-Web;-inkscape-font-specification:IranNastaliq-Web"
         id="path3031" />
      <path
         d="m 81.379624,348.74465 0.098,0.6076 0,0.27441 -0.0196,0.1764 -0.0588,0.2352 -0.0196,0.1176 -0.137201,0.392 c -0.1568,0.32664 -0.300534,0.58144 -0.431203,0.7644 l -0.235201,0.35281 c -0.156799,0.24824 -0.280932,0.4181 -0.372402,0.5096 l -0.313602,0.392 c -0.05226,0.0522 -0.104531,0.11757 -0.1568,0.196 l -0.548803,0.52921 c -0.209065,0.1829 -0.405066,0.3005 -0.588004,0.3528 l -0.1372,0 c -0.130663,-3e-5 -0.483465,-0.26137 -1.058406,-0.78401 -0.587998,-0.5227 -0.999599,-0.86243 -1.234807,-1.0192 -0.235194,-0.15683 -0.398529,-0.26137 -0.490002,-0.3136 -0.104527,-0.0523 -0.176394,-0.0915 -0.215602,-0.11761 -0.03919,-0.0262 -0.07186,-0.0588 -0.098,-0.098 -0.03919,-0.0392 -0.05879,-0.085 -0.0588,-0.1372 7e-6,-0.0523 0.03267,-0.13069 0.098,-0.2352 l 2.998816,-4.56682 c 4e-6,-0.13069 0.07841,-0.19603 0.235202,-0.196 0.06534,-3e-5 0.117604,0.0196 0.156801,0.0588 l 0.1372,0.0588 c 0.05227,0.0522 0.130671,0.10451 0.235202,0.1568 0.104537,0.0522 0.16987,0.0849 0.196001,0.098 0.02614,0.0261 0.07187,0.0588 0.1372,0.098 0.05227,0.0392 0.117604,0.0784 0.196001,0.1176 0.0784,0.0392 0.182937,0.098 0.313602,0.1764 0.13067,0.0784 0.392004,0.34624 0.784004,0.8036 0.392004,0.47038 0.588005,0.80358 0.588004,0.99961 m 6.154433,0.3724 c -0.02614,0.94078 -0.712142,2.12332 -2.058011,3.54762 -0.378938,0.37891 -0.725206,0.57491 -1.038806,0.588 -0.117602,-3e-5 -0.509604,-0.28749 -1.176006,-0.8624 -0.666404,-0.57497 -1.28054,-1.03883 -1.84241,-1.39161 -0.06533,-0.10456 -0.098,-0.17643 -0.098,-0.2156 10e-7,-0.0392 0.03267,-0.11109 0.098,-0.2156 l 2.979216,-4.58642 c 0.06533,-0.10456 0.163332,-0.15683 0.294002,-0.15681 0.130665,-2e-5 0.5684,0.26785 1.313207,0.80361 0.744799,0.53571 1.241335,1.26091 1.489608,2.17561 0.02613,0.13064 0.0392,0.23518 0.0392,0.3136 M 82.49683,325.24412 c -0.02613,-0.14373 -0.163334,-0.8428 -0.411603,-2.09721 -0.248267,-1.2544 -0.372401,-2.26054 -0.372402,-3.01841 1e-6,-0.77094 0.261336,-1.46348 0.784005,-2.07762 0.313601,0.0784 0.81667,0.11761 1.509208,0.1176 1.162937,1e-5 1.953474,-0.52266 2.371613,-1.568 0.418131,-1.04534 0.757866,-1.568 1.019205,-1.56801 0.182929,0.0261 0.274397,0.26134 0.274402,0.7056 -5e-6,0.44428 -0.104539,1.00615 -0.313602,1.68561 -0.561874,1.85548 -1.646412,3.22749 -3.253618,4.11602 -0.261336,0.1568 -0.50307,0.32667 -0.725204,0.50961 -0.209068,0.16986 -0.503069,1.2348 -0.882004,3.19481"
         style="font-size:40.14101791px;font-variant:normal;font-stretch:normal;writing-mode:lr-tb;font-family:IranNastaliq-Web;-inkscape-font-specification:IranNastaliq-Web"
         id="path3033" />
      <path
         d="m 81.301225,323.61731 -0.0196,-1.88161 0,-0.6468 c -2.3e-5,-1.28052 0.130645,-2.11026 0.392003,-2.48921 0.261311,-0.37892 0.529178,-0.56839 0.803604,-0.56841 0.561845,0.24829 0.842779,0.93429 0.842804,2.05802 -2.5e-5,0.52268 -0.05882,1.12375 -0.1764,1.8032 -0.588028,6.96458 -2.51537,12.77274 -5.782032,17.4245 -3.175233,4.28588 -6.990717,6.44189 -11.446462,6.46803 -2.221351,-0.11761 -4.063759,-0.86241 -5.52723,-2.23441 -1.463475,-1.37201 -2.234412,-3.31242 -2.312813,-5.82123 0.06533,-4.02455 1.326273,-8.40844 3.782821,-13.15167 0.431198,-0.90159 0.712133,-1.3524 0.842805,-1.35241 0.05226,1e-5 0.0784,0.11762 0.0784,0.3528 -5e-6,0.23522 -0.143739,0.67949 -0.431202,1.33281 -1.489611,3.47576 -2.234414,6.29164 -2.234412,8.44765 l 0,0.3528 c 0.195998,1.96001 0.986535,3.39735 2.371612,4.31202 1.385069,0.91467 3.03801,1.42427 4.958827,1.52881 2.534936,0 4.984946,-0.67947 7.35004,-2.03841 1.737858,-1.14987 3.142531,-2.60681 4.214023,-4.37082 1.528786,-2.32588 2.293189,-5.50109 2.293213,-9.52566 m -10.231256,-0.98 c 0.03919,10e-6 0.359322,0.21561 0.960405,0.6468 0.601056,0.43122 1.091058,0.81669 1.470008,1.15641 0.37892,0.33974 0.633721,0.64028 0.764404,0.9016 0.143718,0.24828 0.215585,0.59455 0.215601,1.03881 l 0,0.0392 c -1.6e-5,0.96695 -0.431218,1.93388 -1.293607,2.90082 -0.862418,0.96694 -1.404687,1.45041 -1.626808,1.4504 -0.209081,-0.0131 -0.392015,-0.12413 -0.548803,-0.3332 -0.143747,-0.20906 -0.561882,-0.588 -1.254407,-1.1368 l -1.626809,-1.31321 c -0.06534,-0.0653 -0.09801,-0.14373 -0.098,-0.2352 -9e-6,-0.0915 0.03266,-0.18946 0.098,-0.294 1.777065,-3.18828 2.757069,-4.79548 2.940016,-4.82163"
         style="font-size:40.14101791px;font-variant:normal;font-stretch:normal;writing-mode:lr-tb;font-family:IranNastaliq-Web;-inkscape-font-specification:IranNastaliq-Web"
         id="path3035" />
      <path
         d="m 47.706636,303.0372 c 0.07839,-0.14371 0.156795,-0.21558 0.235202,-0.2156 0.09146,2e-5 0.137194,0.11109 0.1372,0.3332 -6e-6,0.22216 -0.07187,0.6599 -0.215601,1.31321 -0.14374,0.65336 -0.352808,2.1495 -0.627203,4.48842 -0.26134,2.33897 -0.476941,3.85471 -0.646804,4.54723 -0.156805,0.67948 -0.49654,1.61375 -1.019205,2.80281 0.483465,-0.50959 1.195601,-1.33279 2.136411,-2.46961 1.228266,-1.29359 2.404271,-1.94039 3.528019,-1.94041 0.757861,2e-5 1.293597,0.25482 1.607209,0.7644 0.31359,0.50962 0.470391,0.88202 0.470403,1.11721 -1.2e-5,0.79708 -0.241746,1.81629 -0.725204,3.05762 -1.149883,2.62642 -3.220959,5.06336 -6.213234,7.31084 -2.103747,1.45041 -3.678288,2.33241 -4.723626,2.64601 l -0.235201,-1.66601 c -0.1568,-0.61413 -0.235201,-1.12373 -0.235201,-1.52881 0,-0.40506 0.117601,-0.65986 0.352802,-0.7644 1.424273,-0.2744 3.312414,-1.05187 5.66443,-2.33241 2.417339,-1.6072 3.626011,-2.77014 3.62602,-3.48882 -9e-6,-0.24826 -0.261344,-0.45079 -0.784004,-0.60761 -0.522677,-0.16985 -0.99308,-0.25479 -1.411208,-0.2548 -1.110678,10e-6 -2.561085,1.39162 -4.351223,4.17483 -0.509605,0.79707 -0.86894,1.19561 -1.078006,1.1956 -0.209069,10e-6 -0.320137,-0.0915 -0.333202,-0.2744 -10e-7,-0.19599 0.150266,-0.56186 0.450802,-1.09761 0.3136,-0.54879 0.535734,-1.01919 0.666404,-1.4112 0.483466,-0.96693 0.882002,-2.93347 1.195606,-5.89963 0.326665,-2.96614 0.522666,-4.54068 0.588004,-4.72363 l 1.94041,-5.07643"
         style="font-size:40.14101791px;font-variant:normal;font-stretch:normal;writing-mode:lr-tb;font-family:IranNastaliq-Web;-inkscape-font-specification:IranNastaliq-Web"
         id="path3037" />
      <path
         d="m 39.27859,319.30529 c 0.823196,2e-5 1.469999,0.30055 1.940411,0.90161 0.470392,0.60108 0.764393,1.16295 0.882005,1.6856 0.130656,0.50962 0.19599,1.20869 0.196001,2.09722 -0.209079,1.48961 -0.431213,2.52189 -0.666404,3.09681 -0.222145,0.57495 -0.503079,1.28055 -0.842804,2.11681 -0.940814,2.32589 -1.894685,3.87429 -2.861616,4.64523 -0.352808,0.2744 -1.143345,0.64027 -2.371613,1.09761 -1.228276,0.44427 -2.299748,0.6664 -3.214417,0.6664 -0.169869,0 -0.254803,-0.0196 -0.254802,-0.0588 -1e-6,-0.16987 0.548802,-0.59454 1.646409,-1.27401 3.514947,-2.18214 5.612156,-4.29895 6.291634,-6.35043 -0.614145,0.27441 -1.117213,0.41161 -1.509208,0.4116 -1.202146,1e-5 -2.077616,-0.23519 -2.626414,-0.7056 -0.535741,-0.48346 -0.803608,-0.9408 -0.803604,-1.37201 -4e-6,-0.83626 0.489998,-2.20174 1.470008,-4.09642 0.993065,-1.90773 1.901203,-2.8616 2.724414,-2.86162"
         style="font-size:40.14101791px;font-variant:normal;font-stretch:normal;writing-mode:lr-tb;font-family:IranNastaliq-Web;-inkscape-font-specification:IranNastaliq-Web"
         id="path3039" />
      <path
         d="m 30.399741,311.24965 c 0.09145,-0.13066 0.169854,-0.19599 0.235202,-0.196 0.07839,10e-6 0.14372,0.0392 0.196001,0.1176 -0.02615,1.24135 -0.385483,2.39775 -1.078006,3.46922 -0.679483,1.05841 -1.502686,1.78361 -2.469614,2.17561 -1.946952,1.58108 -3.227491,2.37161 -3.84162,2.37161 -0.03921,0 -0.182941,-0.0719 -0.431203,-0.2156 -0.248274,-0.1568 -0.633742,-0.2352 -1.156406,-0.2352 -1.13681,0.0261 -2.378149,0.71214 -3.72402,2.05801 -0.757872,0.75787 -1.20214,1.43734 -1.332807,2.03841 -0.287468,0.22213 -0.522669,0.34627 -0.705604,0.3724 l -0.0196,0 c -0.169867,0 -0.378935,-0.12413 -0.627204,-0.3724 1.058406,-1.98614 2.201745,-3.58028 3.430019,-4.78243 1.933873,-1.8816 3.436546,-2.8224 4.508024,-2.82241 0.352795,10e-6 0.921198,0.14374 1.70521,0.4312 0.209059,10e-6 0.587994,-0.17639 1.136806,-0.5292 0.561859,-0.3528 1.208662,-1.10413 1.94041,-2.25401 0.07839,-0.0523 0.222123,-0.0327 0.431203,0.0588 0.209055,0.0915 0.385456,0.13721 0.529202,0.1372 0.143722,1e-5 0.359323,-0.15026 0.646804,-0.45081 0.287455,-0.31359 0.496523,-0.77092 0.627203,-1.372"
         style="font-size:40.14101791px;font-variant:normal;font-stretch:normal;writing-mode:lr-tb;font-family:IranNastaliq-Web;-inkscape-font-specification:IranNastaliq-Web"
         id="path3041" />
      <path
         d="m 6.3504128,320.4421 c -1.698682,3.63256 -2.835487,6.32431 -3.4104186,8.07524 -0.5749402,1.75095 -0.8624081,3.44309 -0.8624046,5.07643 -3.5e-6,1.63334 0.6075992,2.92695 1.8228099,3.88082 1.2152,0.96694 2.7440068,1.4504 4.5864248,1.45041 3.2013377,-1e-5 6.0237497,-1.02574 8.4672457,-3.07722 0.940786,-0.79707 1.659456,-1.60067 2.156012,-2.41081 0.496515,-0.8232 0.744783,-1.41774 0.744804,-1.78361 -2.1e-5,-0.36587 -0.08496,-0.65333 -0.254801,-0.86241 -0.156822,-0.20906 -0.44429,-0.38546 -0.862405,-0.5292 -0.405089,-0.14373 -0.882024,-0.294 -1.430808,-0.4508 -0.535754,-0.1568 -0.947356,-0.28746 -1.234806,-0.392 -1.162956,-0.41813 -1.744426,-1.40467 -1.74441,-2.95962 -1.6e-5,-0.98 0.352786,-2.18867 1.058406,-3.62602 0.248251,-0.32666 0.516119,-0.48999 0.803604,-0.49 0.287451,1e-5 0.470385,0.16334 0.548803,0.49 -0.03922,0.19601 0.03918,0.36588 0.235201,0.5096 0.20905,0.13068 0.777452,0.38548 1.70521,0.76441 0.940784,0.37894 1.469986,0.61414 1.587608,0.7056 0.640248,0.43121 0.960383,1.22828 0.960406,2.39121 -2.3e-5,2.02535 -0.385491,4.16176 -1.156407,6.40924 -0.770958,2.24748 -1.679095,4.08989 -2.724415,5.52723 -1.202157,1.82934 -2.639497,3.22748 -4.312023,4.19442 -1.659488,1.14987 -3.6390972,1.7248 -5.9388322,1.72481 l -0.098001,0 C 4.6582642,345.04675 2.8354561,344.23662 1.5287866,342.62942 0.50957914,341.24434 -2.3115638e-5,339.6894 -2.172403e-5,337.96459 0.01304361,337.95152 0.01957697,337.91886 0.01957838,337.86659 c 0.06533221,-5.31816 2.14294142,-11.37458 6.23283382,-18.1693 0.052259,-0.0915 0.1045262,-0.13718 0.1568009,-0.1372 0.065326,2e-5 0.1110593,0.007 0.1372007,0.0196 l 0.0196,0 c 0.052259,0.0523 -0.019608,0.33975 -0.2156011,0.86241"
         style="font-size:40.14101791px;font-variant:normal;font-stretch:normal;writing-mode:lr-tb;font-family:IranNastaliq-Web;-inkscape-font-specification:IranNastaliq-Web"
         id="path3043" />
    </g>
  </g>
</svg>
